HIERARCHY
ROOT Hips
{
	OFFSET 0.000000 0.000000 0.000000 
	CHANNELS 6 Xposition Yposition Zposition Zrotation Yrotation Xrotation
	JOINT LeftUpLeg
	{
		OFFSET 1.363060 -1.794630 0.839290 
		CHANNELS 3 Zrotation Yrotation Xrotation
		JOINT LeftLeg
		{
			OFFSET 2.448110 -6.726130 0.000000 
			CHANNELS 3 Zrotation Yrotation Xrotation
			JOINT LeftFoot
			{
				OFFSET 2.562200 -7.039590 0.000000 
				CHANNELS 3 Zrotation Yrotation Xrotation
				JOINT LeftToeBase
				{
					OFFSET 0.157640 -0.433110 2.322550 
					CHANNELS 3 Zrotation Yrotation Xrotation
					End Site
					{
						OFFSET 0.000000 0.000000 0.000000 
					}
				}
			}
		}
	}
	JOINT RightUpLeg
	{
		OFFSET -1.305520 -1.794630 0.839290 
		CHANNELS 3 Zrotation Yrotation Xrotation
		JOINT RightLeg
		{
			OFFSET -2.542530 -6.985550 0.000000 
			CHANNELS 3 Zrotation Yrotation Xrotation
			JOINT RightFoot
			{
				OFFSET -2.568260 -7.056230 0.000000 
				CHANNELS 3 Zrotation Yrotation Xrotation
				JOINT RightToeBase
				{
					OFFSET -0.164730 -0.452590 2.363150 
					CHANNELS 3 Zrotation Yrotation Xrotation
					End Site
					{
						OFFSET 0.000000 0.000000 0.000000 
					}
				}
			}
		}
	}
	JOINT Spine
	{
		OFFSET 0.028270 2.035590 -0.193380 
		CHANNELS 3 Zrotation Yrotation Xrotation
		JOINT Spine1
		{
			OFFSET 0.056720 2.048850 -0.042750 
			CHANNELS 3 Zrotation Yrotation Xrotation
			JOINT Neck1
			{
				OFFSET -0.054170 1.746240 0.172020 
				CHANNELS 3 Zrotation Yrotation Xrotation
				JOINT Head
				{
					OFFSET 0.104070 1.761360 -0.123970 
					CHANNELS 3 Zrotation Yrotation Xrotation
					End Site
					{
						OFFSET 0.000000 0.000000 0.000000 
					}
				}
			}
			JOINT LeftArm
			{
				OFFSET 3.362410 1.200890 -0.311210 
				CHANNELS 3 Zrotation Yrotation Xrotation
				JOINT LeftForeArm
				{
					OFFSET 4.983000 -0.000000 -0.000000 
					CHANNELS 3 Zrotation Yrotation Xrotation
					JOINT LeftHand
					{
						OFFSET 3.483560 -0.000000 -0.000000 
						CHANNELS 3 Zrotation Yrotation Xrotation
						JOINT LeftHandIndex1
						{
							OFFSET 0.715260 -0.000000 -0.000000 
							CHANNELS 3 Zrotation Yrotation Xrotation
							End Site
							{
								OFFSET 0.000000 0.000000 0.000000 
							}
						}
					}
				}
			}
			JOINT RightArm
			{
				OFFSET -3.136600 1.374050 -0.404650 
				CHANNELS 3 Zrotation Yrotation Xrotation
				JOINT RightForeArm
				{
					OFFSET -5.241900 -0.000000 -0.000000 
					CHANNELS 3 Zrotation Yrotation Xrotation
					JOINT RightHand
					{
						OFFSET -3.444170 -0.000000 -0.000000 
						CHANNELS 3 Zrotation Yrotation Xrotation
						JOINT RightHandIndex1
						{
							OFFSET -0.622530 -0.000000 -0.000000 
							CHANNELS 3 Zrotation Yrotation Xrotation
							End Site
							{
								OFFSET 0.000000 0.000000 0.000000 
							}
						}
					}
				}
			}
		}
	}
}
MOTION
Frames: 16
Frame Time: 0.041667
-37.957367 18.010612 -1.315893 -17.363458 81.877967 -15.844573 -3.682699 -6.693731 -17.661055 -1.846652 8.354490 23.136900 4.967887 -5.697134 16.734115 0.206300 -2.924500 -8.068500 15.794060 13.223059 0.513680 2.573815 -6.049914 18.323298 -1.277145 0.086564 -7.111551 -0.528300 -4.657700 12.934700 3.349895 -0.636267 3.985723 1.758667 0.413108 -2.081215 4.590069 6.553203 -2.949693 0.208700 2.997700 -0.785500 -82.757567 13.425176 22.671592 27.577661 -37.738768 -12.283722 0.679784 -1.708496 -0.139843 -7.125000 0.000000 0.000000 72.367742 -10.264068 30.700752 -21.293168 29.215213 -6.153700 0.885052 0.307674 2.961088 7.125000 0.000000 0.000000 
-37.956234 18.010715 -1.315996 -17.314657 81.855847 -15.780020 -3.681997 -6.699829 -17.659698 -1.843495 8.356106 23.136940 4.945619 -5.637119 16.720697 0.209400 -2.946400 -8.129600 15.793581 13.244320 0.504073 2.573070 -6.054384 18.334543 -1.257923 0.044936 -7.039974 -0.512600 -4.589000 12.739900 3.334312 -0.639060 3.981621 1.772867 0.413549 -2.045532 3.801780 6.755534 -3.652604 -0.105800 3.082000 -1.050300 -82.759786 13.558578 22.839734 27.724327 -37.864770 -12.381900 0.677148 -1.709886 -0.319283 -7.125000 0.000000 0.000000 72.260510 -10.269268 31.290203 -21.251209 29.178822 -6.132956 0.905509 0.297734 2.777231 7.125000 0.000000 0.000000 
-37.956234 18.012157 -1.318056 -16.980361 81.751779 -15.408060 -3.694890 -6.663805 -17.685230 -1.839415 8.361073 23.141179 4.918306 -5.562223 16.717193 0.208900 -2.943000 -8.120000 15.741024 13.269968 0.448064 2.573537 -6.057104 18.339639 -1.267217 0.088474 -6.891569 -0.496200 -4.516200 12.533600 3.311290 -0.604260 3.952620 1.778402 0.433125 -2.046090 2.847149 6.903329 -4.383307 -0.494600 3.142900 -1.338900 -82.789689 13.742781 22.977312 27.892064 -38.010150 -12.497671 0.676514 -1.710461 -0.520727 -7.125000 0.000000 0.000000 72.138715 -10.316096 31.955438 -21.192102 29.125681 -6.101385 0.924082 0.281838 2.703498 7.125000 0.000000 0.000000 
-37.955410 18.011951 -1.319910 -16.977268 81.697693 -15.391886 -3.682510 -6.654076 -17.679998 -1.833926 8.364903 23.150412 4.904775 -5.523447 16.704588 0.206600 -2.926600 -8.074500 15.743068 13.286087 0.436625 2.573411 -6.061488 18.349634 -1.258156 0.078891 -6.794811 -0.478900 -4.437800 12.311800 3.296486 -0.598488 3.924681 1.795572 0.437099 -2.038939 1.148410 7.200087 -5.538017 -1.209100 3.280900 -1.804100 -82.859975 13.948742 23.070816 28.068025 -38.156998 -12.616110 0.674041 -1.708711 -0.696040 -7.125000 0.000000 0.000000 71.990348 -10.390388 32.646853 -21.215717 29.155501 -6.109986 0.940081 0.280896 2.713285 7.125000 0.000000 0.000000 
-37.955513 18.012672 -1.322382 -16.845174 81.590696 -15.233315 -3.677325 -6.625669 -17.710954 -1.826437 8.371058 23.158266 4.868417 -5.421455 16.702196 0.208000 -2.936500 -8.102000 15.730768 13.387623 0.428880 2.576948 -6.062028 18.349101 -1.239219 0.051048 -6.638118 -0.465300 -4.375400 12.135300 3.292275 -0.576777 3.916154 1.772590 0.448739 -2.084351 1.651070 7.120014 -5.094352 -0.989500 3.244700 -1.615300 -82.979111 14.225873 23.180843 28.242772 -38.314652 -12.734093 0.668467 -1.702594 -0.829882 -7.125000 0.000000 0.000000 71.855563 -10.525198 33.251538 -21.282046 29.225095 -6.123361 0.926325 0.275874 2.883275 7.125000 0.000000 0.000000 
-37.955101 18.013187 -1.324545 -16.677448 81.501102 -15.043169 -3.679151 -6.602264 -17.728366 -1.818832 8.379558 23.173785 4.839657 -5.344078 16.684756 0.208100 -2.936900 -8.103200 15.709937 13.446666 0.414260 2.578879 -6.062951 18.350164 -1.229527 0.043570 -6.502105 -0.450600 -4.306600 11.940700 3.279762 -0.556022 3.901907 1.766951 0.460229 -2.100155 1.264463 7.183608 -5.326463 -1.154500 3.275200 -1.707700 -83.065631 14.461047 23.298364 28.406963 -38.457082 -12.844612 0.664097 -1.699138 -0.974264 -7.125000 0.000000 0.000000 71.727019 -10.627929 33.865612 -21.324065 29.271217 -6.133363 0.927402 0.271927 2.917053 7.125000 0.000000 0.000000 
-37.954586 18.013702 -1.327016 -16.505428 81.400531 -14.848979 -3.680439 -6.572391 -17.747737 -1.810222 8.389096 23.191885 4.809441 -5.262610 16.665259 0.208200 -2.937900 -8.105800 15.688805 13.511757 0.401746 2.581499 -6.062891 18.348418 -1.220285 0.038086 -6.360862 -0.434700 -4.231100 11.727900 3.268030 -0.530486 3.887962 1.756260 0.474174 -2.122259 1.006583 7.222531 -5.467352 -1.265000 3.294400 -1.763700 -83.163256 14.713197 23.416124 28.566353 -38.596219 -12.951520 0.659114 -1.695149 -1.106330 -7.125000 0.000000 0.000000 71.603657 -10.747475 34.455532 -21.381485 29.332448 -6.149718 0.925461 0.270053 2.948075 7.125000 0.000000 0.000000 
-37.953865 18.014217 -1.329488 -16.343182 81.296001 -14.663906 -3.679802 -6.540926 -17.765642 -1.802106 8.396948 23.205722 4.778375 -5.177815 16.648389 0.208300 -2.938500 -8.107700 15.669939 13.581447 0.391408 2.584105 -6.063195 18.347233 -1.212398 0.035886 -6.223772 -0.420600 -4.162800 11.535000 3.255441 -0.500547 3.874120 1.738710 0.490621 -2.147973 0.854644 7.242337 -5.542402 -1.331100 3.304200 -1.793800 -83.261210 14.980296 23.543263 28.714978 -38.727504 -13.051085 0.653901 -1.690674 -1.229653 -7.125000 0.000000 0.000000 71.499763 -10.871851 34.989245 -21.431888 29.386144 -6.162030 0.920854 0.269679 2.977539 7.125000 0.000000 0.000000 
-37.952938 18.014938 -1.332063 -16.175831 81.182956 -14.471824 -3.679076 -6.504175 -17.785685 -1.793451 8.405158 23.220019 4.745041 -5.086717 16.631728 0.208300 -2.938800 -8.108400 15.649310 13.654094 0.381278 2.587723 -6.061961 18.341295 -1.206878 0.040484 -6.080463 -0.407500 -4.097900 11.352300 3.241687 -0.464144 3.860083 1.715110 0.510325 -2.176565 0.791841 7.244651 -5.558619 -1.359900 3.305500 -1.801100 -83.358484 15.260010 23.679910 28.849632 -38.848423 -13.141202 0.648777 -1.685972 -1.344828 -7.125000 0.000000 0.000000 71.414391 -11.001261 35.470316 -21.475496 29.432611 -6.171151 0.914762 0.270747 2.985094 7.125000 0.000000 0.000000 
-37.951599 18.015556 -1.334638 -16.001545 81.068488 -14.272376 -3.679292 -6.467320 -17.803588 -1.784982 8.413183 23.233635 4.711331 -4.995207 16.613676 0.208100 -2.937400 -8.104500 15.627277 13.726462 0.373409 2.591604 -6.059464 18.331980 -1.201717 0.044425 -5.946228 -0.393500 -4.028000 11.155400 3.226263 -0.423558 3.846495 1.688467 0.532387 -2.203575 0.731609 7.244098 -5.575462 -1.389200 3.305100 -1.810200 -83.452773 15.548566 23.825828 28.968837 -38.957731 -13.221217 0.644134 -1.681388 -1.459103 -7.125000 0.000000 0.000000 71.349249 -11.132471 35.897257 -21.507261 29.467232 -6.175131 0.908042 0.273200 2.965691 7.125000 0.000000 0.000000 
-37.950054 18.016483 -1.337419 -15.850999 80.951642 -14.093042 -3.676449 -6.428556 -17.822742 -1.776672 8.420131 23.244620 4.678199 -4.904112 16.597238 0.207800 -2.935200 -8.098400 15.606774 13.796956 0.363738 2.596323 -6.055617 18.318413 -1.198785 0.053467 -5.817810 -0.380300 -3.960500 10.965600 3.209799 -0.379633 3.831501 1.656471 0.556050 -2.230435 0.674987 7.238906 -5.587799 -1.418000 3.302300 -1.818800 -83.542948 15.848911 23.977083 29.070658 -39.054516 -13.290128 0.640307 -1.677138 -1.572876 -7.125000 0.000000 0.000000 71.303347 -11.270115 36.274018 -21.532625 29.495683 -6.177073 0.901546 0.277469 2.909127 7.125000 0.000000 0.000000 
-37.947994 18.017410 -1.340097 -15.688591 80.837921 -13.901311 -3.676185 -6.392846 -17.838102 -1.769044 8.426340 23.253225 4.644225 -4.811622 16.580353 0.207200 -2.931100 -8.086900 15.583471 13.867018 0.357158 2.601589 -6.050236 18.300953 -1.196360 0.063194 -5.689905 -0.368700 -3.900300 10.796400 3.192775 -0.335095 3.817764 1.624748 0.580154 -2.253490 0.628005 7.229437 -5.591769 -1.442400 3.297600 -1.824300 -83.632610 16.154994 24.128071 29.152455 -39.136709 -13.346701 0.637777 -1.673281 -1.687918 -7.125000 0.000000 0.000000 71.266550 -11.423157 36.621371 -21.568846 29.535830 -6.185675 0.895697 0.284069 2.805504 7.125000 0.000000 0.000000 
-37.945419 18.018543 -1.342775 -15.513069 80.727997 -13.695745 -3.679527 -6.358726 -17.851734 -1.762342 8.431855 23.259531 4.610514 -4.720658 16.562080 0.206600 -2.926600 -8.074400 15.556328 13.936470 0.353534 2.607371 -6.042960 18.278371 -1.193725 0.071562 -5.564901 -0.358200 -3.844800 10.640500 3.175048 -0.291484 3.806270 1.593052 0.603555 -2.270815 0.587018 7.217042 -5.589142 -1.464000 3.291400 -1.827000 -83.721582 16.462944 24.273711 29.212464 -39.202887 -13.389540 0.636493 -1.670084 -1.809532 -7.125000 0.000000 0.000000 71.232730 -11.602541 36.956257 -21.636599 29.608654 -6.211470 0.891137 0.293199 2.645391 7.125000 0.000000 0.000000 
-37.942535 18.019779 -1.345453 -15.350209 80.625062 -13.502832 -3.683125 -6.328631 -17.861535 -1.756501 8.436289 23.263128 4.578196 -4.633621 16.543527 0.206000 -2.922200 -8.062300 15.529821 14.003080 0.353486 2.613954 -6.033881 18.251133 -1.190007 0.077648 -5.433458 -0.349100 -3.796400 10.504500 3.158973 -0.250699 3.797898 1.563856 0.625538 -2.281987 0.557330 7.201685 -5.576547 -1.479200 3.284100 -1.824800 -83.812985 16.768363 24.408022 29.248667 -39.251303 -13.417353 0.636645 -1.667516 -1.930127 -7.125000 0.000000 0.000000 71.198536 -11.804571 37.272934 -21.733428 29.710946 -6.252381 0.886450 0.304231 2.433062 7.125000 0.000000 0.000000 
-37.939136 18.021015 -1.348131 -15.199507 80.529156 -13.323312 -3.687088 -6.304372 -17.866915 -1.751187 8.440215 23.265106 4.545997 -4.547656 16.523924 0.205300 -2.917500 -8.049100 15.503518 14.063868 0.357564 2.621174 -6.022539 18.218281 -1.186334 0.083546 -5.301885 -0.340800 -3.751300 10.377900 3.144641 -0.212636 3.792557 1.536835 0.645997 -2.287566 0.541574 7.184637 -5.557905 -1.487000 3.276000 -1.819900 -83.905950 17.072427 24.531899 29.263370 -39.283838 -13.431811 0.638107 -1.665939 -2.055074 -7.125000 0.000000 0.000000 71.165351 -12.025061 37.569684 -21.851708 29.834921 -6.304984 0.882057 0.316424 2.180642 7.125000 0.000000 0.000000 
-37.935531 18.022251 -1.350706 -15.076963 80.442302 -13.171803 -3.689499 -6.286008 -17.869303 -1.746365 8.443497 23.266317 4.516192 -4.468574 16.502977 0.204300 -2.910200 -8.029000 15.479892 14.122066 0.366404 2.629594 -6.008538 18.178287 -1.180472 0.083754 -5.169005 -0.333400 -3.711000 10.265100 3.132604 -0.177989 3.789264 1.512119 0.664742 -2.288206 0.537648 7.165923 -5.534987 -1.488500 3.267300 -1.813100 -83.999635 17.373718 24.646012 29.253823 -39.298078 -13.430415 0.640590 -1.664953 -2.183470 -7.125000 0.000000 0.000000 71.138375 -12.248271 37.829614 -21.966508 29.955369 -6.357165 0.877862 0.328396 1.920246 7.125000 0.000000 0.000000 
